<mxfile host="app.diagrams.net" modified="2023-07-12T05:46:44.724Z" agent="Mozilla/5.0 (Windows NT 10.0; Win64; x64) AppleWebKit/537.36 (KHTML, like Gecko) Chrome/114.0.0.0 Safari/537.36" etag="g6o1dyajLiAixxsq0bnq" version="21.6.2" type="github" pages="2">
  <diagram id="So0BO-VB4mpMW315n1-w" name="library_v1">
    <mxGraphModel dx="1257" dy="691" grid="1" gridSize="10" guides="1" tooltips="1" connect="1" arrows="1" fold="1" page="1" pageScale="1" pageWidth="827" pageHeight="1169" math="0" shadow="0">
      <root>
        <mxCell id="0" />
        <mxCell id="1" parent="0" />
        <mxCell id="MDjdzu3vmv4DpYdNtKIt-1" value="Библиотека" style="swimlane;html=1;childLayout=stackLayout;resizeParent=1;resizeParentMax=0;horizontal=0;startSize=20;horizontalStack=0;whiteSpace=wrap;" parent="1" vertex="1">
          <mxGeometry x="40" y="40" width="1390" height="640" as="geometry" />
        </mxCell>
        <mxCell id="MDjdzu3vmv4DpYdNtKIt-2" value="Читатель" style="swimlane;html=1;startSize=20;horizontal=0;" parent="MDjdzu3vmv4DpYdNtKIt-1" vertex="1">
          <mxGeometry x="20" width="1370" height="200" as="geometry" />
        </mxCell>
        <mxCell id="MDjdzu3vmv4DpYdNtKIt-6" value="Возврат книг" style="points=[[0.145,0.145,0],[0.5,0,0],[0.855,0.145,0],[1,0.5,0],[0.855,0.855,0],[0.5,1,0],[0.145,0.855,0],[0,0.5,0]];shape=mxgraph.bpmn.event;html=1;verticalLabelPosition=bottom;labelBackgroundColor=#ffffff;verticalAlign=top;align=center;perimeter=ellipsePerimeter;outlineConnect=0;aspect=fixed;outline=standard;symbol=general;" parent="MDjdzu3vmv4DpYdNtKIt-2" vertex="1">
          <mxGeometry x="60" y="60" width="50" height="50" as="geometry" />
        </mxCell>
        <mxCell id="MDjdzu3vmv4DpYdNtKIt-17" value="Оплата штрафа" style="points=[[0.25,0,0],[0.5,0,0],[0.75,0,0],[1,0.25,0],[1,0.5,0],[1,0.75,0],[0.75,1,0],[0.5,1,0],[0.25,1,0],[0,0.75,0],[0,0.5,0],[0,0.25,0]];shape=mxgraph.bpmn.task;whiteSpace=wrap;rectStyle=rounded;size=10;html=1;container=1;expand=0;collapsible=0;taskMarker=abstract;" parent="MDjdzu3vmv4DpYdNtKIt-2" vertex="1">
          <mxGeometry x="767" y="60" width="120" height="80" as="geometry" />
        </mxCell>
        <mxCell id="MDjdzu3vmv4DpYdNtKIt-5" value="Библиотекарь" style="swimlane;html=1;startSize=20;horizontal=0;" parent="MDjdzu3vmv4DpYdNtKIt-1" vertex="1">
          <mxGeometry x="20" y="200" width="1370" height="300" as="geometry" />
        </mxCell>
        <mxCell id="MDjdzu3vmv4DpYdNtKIt-10" value="" style="edgeStyle=orthogonalEdgeStyle;rounded=0;orthogonalLoop=1;jettySize=auto;html=1;" parent="MDjdzu3vmv4DpYdNtKIt-5" source="MDjdzu3vmv4DpYdNtKIt-7" target="MDjdzu3vmv4DpYdNtKIt-9" edge="1">
          <mxGeometry relative="1" as="geometry" />
        </mxCell>
        <mxCell id="MDjdzu3vmv4DpYdNtKIt-7" value="Проверка срока возврата каждой книги" style="points=[[0.25,0,0],[0.5,0,0],[0.75,0,0],[1,0.25,0],[1,0.5,0],[1,0.75,0],[0.75,1,0],[0.5,1,0],[0.25,1,0],[0,0.75,0],[0,0.5,0],[0,0.25,0]];shape=mxgraph.bpmn.task;whiteSpace=wrap;rectStyle=rounded;size=10;html=1;container=1;expand=0;collapsible=0;taskMarker=abstract;" parent="MDjdzu3vmv4DpYdNtKIt-5" vertex="1">
          <mxGeometry x="170" y="80" width="120" height="80" as="geometry" />
        </mxCell>
        <mxCell id="MDjdzu3vmv4DpYdNtKIt-12" value="" style="edgeStyle=orthogonalEdgeStyle;rounded=0;orthogonalLoop=1;jettySize=auto;html=1;entryX=0;entryY=0.5;entryDx=0;entryDy=0;entryPerimeter=0;exitX=0.5;exitY=0;exitDx=0;exitDy=0;exitPerimeter=0;" parent="MDjdzu3vmv4DpYdNtKIt-5" source="MDjdzu3vmv4DpYdNtKIt-9" target="MDjdzu3vmv4DpYdNtKIt-13" edge="1">
          <mxGeometry relative="1" as="geometry">
            <mxPoint x="435" y="120" as="targetPoint" />
            <Array as="points">
              <mxPoint x="354" y="70" />
            </Array>
          </mxGeometry>
        </mxCell>
        <mxCell id="MDjdzu3vmv4DpYdNtKIt-16" value="срок просрочен" style="edgeLabel;html=1;align=center;verticalAlign=middle;resizable=0;points=[];" parent="MDjdzu3vmv4DpYdNtKIt-12" vertex="1" connectable="0">
          <mxGeometry x="-0.2963" y="1" relative="1" as="geometry">
            <mxPoint x="21" y="-9" as="offset" />
          </mxGeometry>
        </mxCell>
        <mxCell id="MDjdzu3vmv4DpYdNtKIt-26" style="edgeStyle=orthogonalEdgeStyle;rounded=0;orthogonalLoop=1;jettySize=auto;html=1;exitX=0.5;exitY=1;exitDx=0;exitDy=0;exitPerimeter=0;entryX=0;entryY=0.5;entryDx=0;entryDy=0;entryPerimeter=0;startArrow=dash;startFill=0;" parent="MDjdzu3vmv4DpYdNtKIt-5" source="MDjdzu3vmv4DpYdNtKIt-9" target="MDjdzu3vmv4DpYdNtKIt-25" edge="1">
          <mxGeometry relative="1" as="geometry" />
        </mxCell>
        <mxCell id="MDjdzu3vmv4DpYdNtKIt-9" value="" style="points=[[0.25,0.25,0],[0.5,0,0],[0.75,0.25,0],[1,0.5,0],[0.75,0.75,0],[0.5,1,0],[0.25,0.75,0],[0,0.5,0]];shape=mxgraph.bpmn.gateway2;html=1;verticalLabelPosition=bottom;labelBackgroundColor=#ffffff;verticalAlign=top;align=center;perimeter=rhombusPerimeter;outlineConnect=0;outline=none;symbol=none;gwType=exclusive;" parent="MDjdzu3vmv4DpYdNtKIt-5" vertex="1">
          <mxGeometry x="329" y="95" width="50" height="50" as="geometry" />
        </mxCell>
        <mxCell id="MDjdzu3vmv4DpYdNtKIt-15" value="" style="edgeStyle=orthogonalEdgeStyle;rounded=0;orthogonalLoop=1;jettySize=auto;html=1;dashed=1;" parent="MDjdzu3vmv4DpYdNtKIt-5" source="MDjdzu3vmv4DpYdNtKIt-13" target="MDjdzu3vmv4DpYdNtKIt-14" edge="1">
          <mxGeometry relative="1" as="geometry" />
        </mxCell>
        <mxCell id="MDjdzu3vmv4DpYdNtKIt-13" value="Оформление квитанции на оплату штрафа" style="points=[[0.25,0,0],[0.5,0,0],[0.75,0,0],[1,0.25,0],[1,0.5,0],[1,0.75,0],[0.75,1,0],[0.5,1,0],[0.25,1,0],[0,0.75,0],[0,0.5,0],[0,0.25,0]];shape=mxgraph.bpmn.task;whiteSpace=wrap;rectStyle=rounded;size=10;html=1;container=1;expand=0;collapsible=0;taskMarker=abstract;" parent="MDjdzu3vmv4DpYdNtKIt-5" vertex="1">
          <mxGeometry x="470" y="30" width="130" height="80" as="geometry" />
        </mxCell>
        <mxCell id="MDjdzu3vmv4DpYdNtKIt-14" value="Квитанция на &lt;br&gt;оплату штрафа" style="shape=mxgraph.bpmn.data;labelPosition=center;verticalLabelPosition=bottom;align=center;verticalAlign=top;size=15;html=1;bpmnTransferType=output;" parent="MDjdzu3vmv4DpYdNtKIt-5" vertex="1">
          <mxGeometry x="650" y="40" width="40" height="60" as="geometry" />
        </mxCell>
        <mxCell id="MDjdzu3vmv4DpYdNtKIt-34" value="" style="edgeStyle=orthogonalEdgeStyle;rounded=0;orthogonalLoop=1;jettySize=auto;html=1;" parent="MDjdzu3vmv4DpYdNtKIt-5" source="MDjdzu3vmv4DpYdNtKIt-25" target="MDjdzu3vmv4DpYdNtKIt-33" edge="1">
          <mxGeometry relative="1" as="geometry" />
        </mxCell>
        <mxCell id="MDjdzu3vmv4DpYdNtKIt-25" value="Отметка возврата книги в читательском билете и карточке книги" style="points=[[0.25,0,0],[0.5,0,0],[0.75,0,0],[1,0.25,0],[1,0.5,0],[1,0.75,0],[0.75,1,0],[0.5,1,0],[0.25,1,0],[0,0.75,0],[0,0.5,0],[0,0.25,0]];shape=mxgraph.bpmn.task;whiteSpace=wrap;rectStyle=rounded;size=10;html=1;container=1;expand=0;collapsible=0;taskMarker=abstract;" parent="MDjdzu3vmv4DpYdNtKIt-5" vertex="1">
          <mxGeometry x="470" y="160" width="130" height="80" as="geometry" />
        </mxCell>
        <mxCell id="MDjdzu3vmv4DpYdNtKIt-33" value="" style="points=[[0.145,0.145,0],[0.5,0,0],[0.855,0.145,0],[1,0.5,0],[0.855,0.855,0],[0.5,1,0],[0.145,0.855,0],[0,0.5,0]];shape=mxgraph.bpmn.event;html=1;verticalLabelPosition=bottom;labelBackgroundColor=#ffffff;verticalAlign=top;align=center;perimeter=ellipsePerimeter;outlineConnect=0;aspect=fixed;outline=end;symbol=terminate;" parent="MDjdzu3vmv4DpYdNtKIt-5" vertex="1">
          <mxGeometry x="650" y="175" width="50" height="50" as="geometry" />
        </mxCell>
        <mxCell id="MDjdzu3vmv4DpYdNtKIt-8" style="edgeStyle=orthogonalEdgeStyle;rounded=0;orthogonalLoop=1;jettySize=auto;html=1;exitX=1;exitY=0.5;exitDx=0;exitDy=0;exitPerimeter=0;entryX=0;entryY=0.5;entryDx=0;entryDy=0;entryPerimeter=0;" parent="MDjdzu3vmv4DpYdNtKIt-1" source="MDjdzu3vmv4DpYdNtKIt-6" target="MDjdzu3vmv4DpYdNtKIt-7" edge="1">
          <mxGeometry relative="1" as="geometry" />
        </mxCell>
        <mxCell id="MDjdzu3vmv4DpYdNtKIt-18" style="edgeStyle=orthogonalEdgeStyle;rounded=0;orthogonalLoop=1;jettySize=auto;html=1;exitX=0;exitY=0;exitDx=40;exitDy=37.5;exitPerimeter=0;entryX=0;entryY=0.5;entryDx=0;entryDy=0;entryPerimeter=0;dashed=1;" parent="MDjdzu3vmv4DpYdNtKIt-1" source="MDjdzu3vmv4DpYdNtKIt-14" target="MDjdzu3vmv4DpYdNtKIt-17" edge="1">
          <mxGeometry relative="1" as="geometry">
            <Array as="points">
              <mxPoint x="710" y="270" />
              <mxPoint x="748" y="270" />
              <mxPoint x="748" y="100" />
            </Array>
          </mxGeometry>
        </mxCell>
        <mxCell id="MDjdzu3vmv4DpYdNtKIt-20" style="edgeStyle=orthogonalEdgeStyle;rounded=0;orthogonalLoop=1;jettySize=auto;html=1;exitX=1;exitY=0.5;exitDx=0;exitDy=0;exitPerimeter=0;entryX=0;entryY=0.5;entryDx=0;entryDy=0;entryPerimeter=0;" parent="MDjdzu3vmv4DpYdNtKIt-1" source="MDjdzu3vmv4DpYdNtKIt-17" target="MDjdzu3vmv4DpYdNtKIt-19" edge="1">
          <mxGeometry relative="1" as="geometry" />
        </mxCell>
        <mxCell id="MDjdzu3vmv4DpYdNtKIt-3" value="Кассир" style="swimlane;html=1;startSize=20;horizontal=0;" parent="MDjdzu3vmv4DpYdNtKIt-1" vertex="1">
          <mxGeometry x="20" y="500" width="1370" height="140" as="geometry" />
        </mxCell>
        <mxCell id="MDjdzu3vmv4DpYdNtKIt-22" value="" style="edgeStyle=orthogonalEdgeStyle;rounded=0;orthogonalLoop=1;jettySize=auto;html=1;entryX=0;entryY=0.5;entryDx=0;entryDy=0;entryPerimeter=0;" parent="MDjdzu3vmv4DpYdNtKIt-3" source="MDjdzu3vmv4DpYdNtKIt-19" target="MDjdzu3vmv4DpYdNtKIt-21" edge="1">
          <mxGeometry relative="1" as="geometry">
            <mxPoint x="1125" y="110" as="targetPoint" />
          </mxGeometry>
        </mxCell>
        <mxCell id="MDjdzu3vmv4DpYdNtKIt-19" value="Приём оплаты по квитанции, выдача чека" style="points=[[0.25,0,0],[0.5,0,0],[0.75,0,0],[1,0.25,0],[1,0.5,0],[1,0.75,0],[0.75,1,0],[0.5,1,0],[0.25,1,0],[0,0.75,0],[0,0.5,0],[0,0.25,0]];shape=mxgraph.bpmn.task;whiteSpace=wrap;rectStyle=rounded;size=10;html=1;container=1;expand=0;collapsible=0;taskMarker=abstract;" parent="MDjdzu3vmv4DpYdNtKIt-3" vertex="1">
          <mxGeometry x="940" y="30" width="120" height="80" as="geometry" />
        </mxCell>
        <mxCell id="MDjdzu3vmv4DpYdNtKIt-21" value="" style="points=[[0.145,0.145,0],[0.5,0,0],[0.855,0.145,0],[1,0.5,0],[0.855,0.855,0],[0.5,1,0],[0.145,0.855,0],[0,0.5,0]];shape=mxgraph.bpmn.event;html=1;verticalLabelPosition=bottom;labelBackgroundColor=#ffffff;verticalAlign=top;align=center;perimeter=ellipsePerimeter;outlineConnect=0;aspect=fixed;outline=end;symbol=terminate;" parent="MDjdzu3vmv4DpYdNtKIt-3" vertex="1">
          <mxGeometry x="1110" y="45" width="50" height="50" as="geometry" />
        </mxCell>
      </root>
    </mxGraphModel>
  </diagram>
  <diagram name="library_v2" id="SDdqZdt87hvkzgMlw2qw">
    <mxGraphModel dx="2200" dy="1210" grid="1" gridSize="10" guides="1" tooltips="1" connect="1" arrows="1" fold="1" page="1" pageScale="1" pageWidth="827" pageHeight="1169" math="0" shadow="0">
      <root>
        <mxCell id="JHeYQwHXTsid6suyzZAi-0" />
        <mxCell id="JHeYQwHXTsid6suyzZAi-1" parent="JHeYQwHXTsid6suyzZAi-0" />
        <mxCell id="JHeYQwHXTsid6suyzZAi-2" value="Библиотека" style="swimlane;html=1;childLayout=stackLayout;resizeParent=1;resizeParentMax=0;horizontal=0;startSize=20;horizontalStack=0;whiteSpace=wrap;" parent="JHeYQwHXTsid6suyzZAi-1" vertex="1">
          <mxGeometry x="40" y="40" width="1520" height="720" as="geometry" />
        </mxCell>
        <mxCell id="JHeYQwHXTsid6suyzZAi-3" value="Читатель" style="swimlane;html=1;startSize=20;horizontal=0;" parent="JHeYQwHXTsid6suyzZAi-2" vertex="1">
          <mxGeometry x="20" width="1500" height="200" as="geometry" />
        </mxCell>
        <mxCell id="JHeYQwHXTsid6suyzZAi-4" value="Возврат книг" style="points=[[0.145,0.145,0],[0.5,0,0],[0.855,0.145,0],[1,0.5,0],[0.855,0.855,0],[0.5,1,0],[0.145,0.855,0],[0,0.5,0]];shape=mxgraph.bpmn.event;html=1;verticalLabelPosition=bottom;labelBackgroundColor=#ffffff;verticalAlign=top;align=center;perimeter=ellipsePerimeter;outlineConnect=0;aspect=fixed;outline=standard;symbol=general;" parent="JHeYQwHXTsid6suyzZAi-3" vertex="1">
          <mxGeometry x="60" y="60" width="50" height="50" as="geometry" />
        </mxCell>
        <mxCell id="JHeYQwHXTsid6suyzZAi-5" value="Оплата штрафа" style="points=[[0.25,0,0],[0.5,0,0],[0.75,0,0],[1,0.25,0],[1,0.5,0],[1,0.75,0],[0.75,1,0],[0.5,1,0],[0.25,1,0],[0,0.75,0],[0,0.5,0],[0,0.25,0]];shape=mxgraph.bpmn.task;whiteSpace=wrap;rectStyle=rounded;size=10;html=1;container=1;expand=0;collapsible=0;taskMarker=abstract;" parent="JHeYQwHXTsid6suyzZAi-3" vertex="1">
          <mxGeometry x="767" y="60" width="120" height="80" as="geometry" />
        </mxCell>
        <mxCell id="JHeYQwHXTsid6suyzZAi-19" style="edgeStyle=orthogonalEdgeStyle;rounded=0;orthogonalLoop=1;jettySize=auto;html=1;exitX=1;exitY=0.5;exitDx=0;exitDy=0;exitPerimeter=0;entryX=0;entryY=0.5;entryDx=0;entryDy=0;entryPerimeter=0;" parent="JHeYQwHXTsid6suyzZAi-2" source="JHeYQwHXTsid6suyzZAi-4" target="JHeYQwHXTsid6suyzZAi-8" edge="1">
          <mxGeometry relative="1" as="geometry" />
        </mxCell>
        <mxCell id="JHeYQwHXTsid6suyzZAi-20" style="edgeStyle=orthogonalEdgeStyle;rounded=0;orthogonalLoop=1;jettySize=auto;html=1;exitX=1.09;exitY=0.483;exitDx=0;exitDy=0;exitPerimeter=0;entryX=0;entryY=0.5;entryDx=0;entryDy=0;entryPerimeter=0;dashed=1;" parent="JHeYQwHXTsid6suyzZAi-2" source="JHeYQwHXTsid6suyzZAi-15" target="JHeYQwHXTsid6suyzZAi-5" edge="1">
          <mxGeometry relative="1" as="geometry" />
        </mxCell>
        <mxCell id="JHeYQwHXTsid6suyzZAi-21" style="edgeStyle=orthogonalEdgeStyle;rounded=0;orthogonalLoop=1;jettySize=auto;html=1;exitX=1;exitY=0.5;exitDx=0;exitDy=0;exitPerimeter=0;entryX=0;entryY=0.5;entryDx=0;entryDy=0;entryPerimeter=0;jumpStyle=arc;" parent="JHeYQwHXTsid6suyzZAi-2" source="JHeYQwHXTsid6suyzZAi-5" target="JHeYQwHXTsid6suyzZAi-24" edge="1">
          <mxGeometry relative="1" as="geometry">
            <mxPoint x="935" y="360" as="targetPoint" />
          </mxGeometry>
        </mxCell>
        <mxCell id="JHeYQwHXTsid6suyzZAi-6" value="Библиотекарь" style="swimlane;html=1;startSize=20;horizontal=0;" parent="JHeYQwHXTsid6suyzZAi-2" vertex="1">
          <mxGeometry x="20" y="200" width="1500" height="300" as="geometry" />
        </mxCell>
        <mxCell id="JHeYQwHXTsid6suyzZAi-7" value="" style="edgeStyle=orthogonalEdgeStyle;rounded=0;orthogonalLoop=1;jettySize=auto;html=1;" parent="JHeYQwHXTsid6suyzZAi-6" source="JHeYQwHXTsid6suyzZAi-8" target="JHeYQwHXTsid6suyzZAi-12" edge="1">
          <mxGeometry relative="1" as="geometry" />
        </mxCell>
        <mxCell id="JHeYQwHXTsid6suyzZAi-8" value="Проверка срока возврата каждой книги" style="points=[[0.25,0,0],[0.5,0,0],[0.75,0,0],[1,0.25,0],[1,0.5,0],[1,0.75,0],[0.75,1,0],[0.5,1,0],[0.25,1,0],[0,0.75,0],[0,0.5,0],[0,0.25,0]];shape=mxgraph.bpmn.task;whiteSpace=wrap;rectStyle=rounded;size=10;html=1;container=1;expand=0;collapsible=0;taskMarker=abstract;" parent="JHeYQwHXTsid6suyzZAi-6" vertex="1">
          <mxGeometry x="170" y="80" width="120" height="80" as="geometry" />
        </mxCell>
        <mxCell id="JHeYQwHXTsid6suyzZAi-9" value="" style="edgeStyle=orthogonalEdgeStyle;rounded=0;orthogonalLoop=1;jettySize=auto;html=1;entryX=0;entryY=0.5;entryDx=0;entryDy=0;entryPerimeter=0;exitX=0.5;exitY=0;exitDx=0;exitDy=0;exitPerimeter=0;" parent="JHeYQwHXTsid6suyzZAi-6" source="JHeYQwHXTsid6suyzZAi-12" target="JHeYQwHXTsid6suyzZAi-14" edge="1">
          <mxGeometry relative="1" as="geometry">
            <mxPoint x="435" y="120" as="targetPoint" />
            <Array as="points">
              <mxPoint x="354" y="70" />
            </Array>
          </mxGeometry>
        </mxCell>
        <mxCell id="JHeYQwHXTsid6suyzZAi-10" value="срок просрочен" style="edgeLabel;html=1;align=center;verticalAlign=middle;resizable=0;points=[];" parent="JHeYQwHXTsid6suyzZAi-9" vertex="1" connectable="0">
          <mxGeometry x="-0.2963" y="1" relative="1" as="geometry">
            <mxPoint x="21" y="-9" as="offset" />
          </mxGeometry>
        </mxCell>
        <mxCell id="JHeYQwHXTsid6suyzZAi-11" style="edgeStyle=orthogonalEdgeStyle;rounded=0;orthogonalLoop=1;jettySize=auto;html=1;exitX=0.5;exitY=1;exitDx=0;exitDy=0;exitPerimeter=0;entryX=0;entryY=0.5;entryDx=0;entryDy=0;entryPerimeter=0;startArrow=dash;startFill=0;" parent="JHeYQwHXTsid6suyzZAi-6" source="JHeYQwHXTsid6suyzZAi-12" target="JHeYQwHXTsid6suyzZAi-17" edge="1">
          <mxGeometry relative="1" as="geometry" />
        </mxCell>
        <mxCell id="JHeYQwHXTsid6suyzZAi-12" value="" style="points=[[0.25,0.25,0],[0.5,0,0],[0.75,0.25,0],[1,0.5,0],[0.75,0.75,0],[0.5,1,0],[0.25,0.75,0],[0,0.5,0]];shape=mxgraph.bpmn.gateway2;html=1;verticalLabelPosition=bottom;labelBackgroundColor=#ffffff;verticalAlign=top;align=center;perimeter=rhombusPerimeter;outlineConnect=0;outline=none;symbol=none;gwType=exclusive;" parent="JHeYQwHXTsid6suyzZAi-6" vertex="1">
          <mxGeometry x="329" y="95" width="50" height="50" as="geometry" />
        </mxCell>
        <mxCell id="JHeYQwHXTsid6suyzZAi-13" value="" style="edgeStyle=orthogonalEdgeStyle;rounded=0;orthogonalLoop=1;jettySize=auto;html=1;dashed=1;" parent="JHeYQwHXTsid6suyzZAi-6" source="JHeYQwHXTsid6suyzZAi-14" target="JHeYQwHXTsid6suyzZAi-15" edge="1">
          <mxGeometry relative="1" as="geometry" />
        </mxCell>
        <mxCell id="JHeYQwHXTsid6suyzZAi-14" value="Оформление квитанции на оплату штрафа" style="points=[[0.25,0,0],[0.5,0,0],[0.75,0,0],[1,0.25,0],[1,0.5,0],[1,0.75,0],[0.75,1,0],[0.5,1,0],[0.25,1,0],[0,0.75,0],[0,0.5,0],[0,0.25,0]];shape=mxgraph.bpmn.task;whiteSpace=wrap;rectStyle=rounded;size=10;html=1;container=1;expand=0;collapsible=0;taskMarker=abstract;" parent="JHeYQwHXTsid6suyzZAi-6" vertex="1">
          <mxGeometry x="470" y="30" width="130" height="80" as="geometry" />
        </mxCell>
        <mxCell id="JHeYQwHXTsid6suyzZAi-15" value="Квитанция на &lt;br&gt;оплату штрафа" style="shape=mxgraph.bpmn.data;labelPosition=center;verticalLabelPosition=bottom;align=center;verticalAlign=top;size=15;html=1;bpmnTransferType=output;" parent="JHeYQwHXTsid6suyzZAi-6" vertex="1">
          <mxGeometry x="650" y="40" width="40" height="60" as="geometry" />
        </mxCell>
        <mxCell id="JHeYQwHXTsid6suyzZAi-17" value="Отметка возврата книги в читательском билете и карточке книги" style="points=[[0.25,0,0],[0.5,0,0],[0.75,0,0],[1,0.25,0],[1,0.5,0],[1,0.75,0],[0.75,1,0],[0.5,1,0],[0.25,1,0],[0,0.75,0],[0,0.5,0],[0,0.25,0]];shape=mxgraph.bpmn.task;whiteSpace=wrap;rectStyle=rounded;size=10;html=1;container=1;expand=0;collapsible=0;taskMarker=abstract;" parent="JHeYQwHXTsid6suyzZAi-6" vertex="1">
          <mxGeometry x="470" y="160" width="130" height="80" as="geometry" />
        </mxCell>
        <mxCell id="kxs9XrmVG1j3b9INmmBM-2" value="Отметка возврата книги в читательском билете и карточке книги" style="points=[[0.25,0,0],[0.5,0,0],[0.75,0,0],[1,0.25,0],[1,0.5,0],[1,0.75,0],[0.75,1,0],[0.5,1,0],[0.25,1,0],[0,0.75,0],[0,0.5,0],[0,0.25,0]];shape=mxgraph.bpmn.task;whiteSpace=wrap;rectStyle=rounded;size=10;html=1;container=1;expand=0;collapsible=0;taskMarker=abstract;" vertex="1" parent="JHeYQwHXTsid6suyzZAi-6">
          <mxGeometry x="1116" y="40" width="130" height="80" as="geometry" />
        </mxCell>
        <mxCell id="JHeYQwHXTsid6suyzZAi-25" value="" style="points=[[0.145,0.145,0],[0.5,0,0],[0.855,0.145,0],[1,0.5,0],[0.855,0.855,0],[0.5,1,0],[0.145,0.855,0],[0,0.5,0]];shape=mxgraph.bpmn.event;html=1;verticalLabelPosition=bottom;labelBackgroundColor=#ffffff;verticalAlign=top;align=center;perimeter=ellipsePerimeter;outlineConnect=0;aspect=fixed;outline=end;symbol=terminate;" parent="JHeYQwHXTsid6suyzZAi-6" vertex="1">
          <mxGeometry x="1320" y="175" width="50" height="50" as="geometry" />
        </mxCell>
        <mxCell id="caFPfb8aIZsa83JF2-bs-1" value="" style="edgeStyle=orthogonalEdgeStyle;rounded=0;orthogonalLoop=1;jettySize=auto;html=1;" parent="JHeYQwHXTsid6suyzZAi-6" source="caFPfb8aIZsa83JF2-bs-0" target="JHeYQwHXTsid6suyzZAi-25" edge="1">
          <mxGeometry relative="1" as="geometry" />
        </mxCell>
        <mxCell id="caFPfb8aIZsa83JF2-bs-0" value="" style="points=[[0.25,0.25,0],[0.5,0,0],[0.75,0.25,0],[1,0.5,0],[0.75,0.75,0],[0.5,1,0],[0.25,0.75,0],[0,0.5,0]];shape=mxgraph.bpmn.gateway2;html=1;verticalLabelPosition=bottom;labelBackgroundColor=#ffffff;verticalAlign=top;align=center;perimeter=rhombusPerimeter;outlineConnect=0;outline=none;symbol=none;gwType=exclusive;" parent="JHeYQwHXTsid6suyzZAi-6" vertex="1">
          <mxGeometry x="1244" y="175" width="50" height="50" as="geometry" />
        </mxCell>
        <mxCell id="JHeYQwHXTsid6suyzZAi-16" value="" style="edgeStyle=orthogonalEdgeStyle;rounded=0;orthogonalLoop=1;jettySize=auto;html=1;entryX=0;entryY=0.5;entryDx=0;entryDy=0;entryPerimeter=0;jumpStyle=arc;" parent="JHeYQwHXTsid6suyzZAi-6" source="JHeYQwHXTsid6suyzZAi-17" target="caFPfb8aIZsa83JF2-bs-0" edge="1">
          <mxGeometry relative="1" as="geometry">
            <mxPoint x="650" y="200" as="targetPoint" />
            <Array as="points">
              <mxPoint x="1160" y="200" />
            </Array>
          </mxGeometry>
        </mxCell>
        <mxCell id="kxs9XrmVG1j3b9INmmBM-3" style="edgeStyle=orthogonalEdgeStyle;rounded=0;orthogonalLoop=1;jettySize=auto;html=1;exitX=1;exitY=0.5;exitDx=0;exitDy=0;exitPerimeter=0;entryX=0.5;entryY=0;entryDx=0;entryDy=0;entryPerimeter=0;" edge="1" parent="JHeYQwHXTsid6suyzZAi-6" source="kxs9XrmVG1j3b9INmmBM-2" target="caFPfb8aIZsa83JF2-bs-0">
          <mxGeometry relative="1" as="geometry" />
        </mxCell>
        <mxCell id="JHeYQwHXTsid6suyzZAi-22" value="Кассир" style="swimlane;html=1;startSize=20;horizontal=0;" parent="JHeYQwHXTsid6suyzZAi-2" vertex="1">
          <mxGeometry x="20" y="500" width="1500" height="220" as="geometry" />
        </mxCell>
        <mxCell id="JHeYQwHXTsid6suyzZAi-24" value="Приём оплаты по квитанции, выдача чека" style="points=[[0.25,0,0],[0.5,0,0],[0.75,0,0],[1,0.25,0],[1,0.5,0],[1,0.75,0],[0.75,1,0],[0.5,1,0],[0.25,1,0],[0,0.75,0],[0,0.5,0],[0,0.25,0]];shape=mxgraph.bpmn.task;whiteSpace=wrap;rectStyle=rounded;size=10;html=1;container=1;expand=0;collapsible=0;taskMarker=abstract;" parent="JHeYQwHXTsid6suyzZAi-22" vertex="1">
          <mxGeometry x="940" y="30" width="120" height="80" as="geometry" />
        </mxCell>
        <mxCell id="JHeYQwHXTsid6suyzZAi-23" value="" style="edgeStyle=orthogonalEdgeStyle;rounded=0;orthogonalLoop=1;jettySize=auto;html=1;entryX=0;entryY=0.5;entryDx=0;entryDy=0;entryPerimeter=0;exitX=1;exitY=0.5;exitDx=0;exitDy=0;exitPerimeter=0;jumpStyle=arc;" parent="JHeYQwHXTsid6suyzZAi-2" source="JHeYQwHXTsid6suyzZAi-24" target="kxs9XrmVG1j3b9INmmBM-2" edge="1">
          <mxGeometry relative="1" as="geometry">
            <mxPoint x="1145" y="610" as="targetPoint" />
          </mxGeometry>
        </mxCell>
      </root>
    </mxGraphModel>
  </diagram>
</mxfile>
